# xmcd
#
# Track frame offsets: 
#        150
#        11883
#        25029
#        34650
#        45430
#        58925
#        69582
#        82757
#        93780
#        104549
#        118511
#        129337
#
# Disc length: 1908 seconds
#
# Revision: 0
# Processed by: cddbd v1.5.2PL0 Copyright (c) Steve Scherf et al.
# Submitted via: ExactAudioCopy v1.0b3
#
DISCID=8f07720c
DTITLE=Various Artist - Country Music Hall Of Fame [CD2]
DYEAR=2014
DGENRE=Country
TTITLE0=Willie Nelson - I'll Stay Around
TTITLE1=Hank Williams - Hey Good Lookin'
TTITLE2=Glen Campbell - Dreams Of An Everyday Housewife (Live)
TTITLE3=Loretta Lynn - Crazy
TTITLE4=Kenny Rogers - Shine On Ruby Mountain
TTITLE5=Kitty Wells - Heartbreak USA
TTITLE6=Johnny Carver - Afternoon Delight
TTITLE7=Ace Cannon - King Of The Road
TTITLE8=Patsy Cline - Honky Tonk Merry-Go-Round
TTITLE9=Johnny Paycheck - I'm The Only Hell (Mama Ever Raised)
TTITLE10=Jim Reeves - Have I Told You Lately That I Love You
TTITLE11=Barbara Fairchild - Teddy Bear Song
EXTD=
EXTT0=
EXTT1=
EXTT2=
EXTT3=
EXTT4=
EXTT5=
EXTT6=
EXTT7=
EXTT8=
EXTT9=
EXTT10=
EXTT11=
PLAYORDER=
